<mxfile host="app.diagrams.net" modified="2020-12-08T07:32:00.041Z" agent="5.0 (Windows NT 10.0; Win64; x64) AppleWebKit/537.36 (KHTML, like Gecko) Chrome/87.0.4280.88 Safari/537.36" etag="Z2yGrBnnPkeXkErn50QR" version="13.10.9" type="github">
  <diagram name="Page-1" id="e7e014a7-5840-1c2e-5031-d8a46d1fe8dd">
    <mxGraphModel dx="1727" dy="947" grid="1" gridSize="10" guides="1" tooltips="1" connect="1" arrows="1" fold="1" page="1" pageScale="1" pageWidth="1654" pageHeight="1169" background="#ffffff" math="0" shadow="0">
      <root>
        <mxCell id="0" />
        <mxCell id="1" parent="0" />
        <mxCell id="aYaNbTCwkLzp46-Q-Bmp-96" value="" style="ellipse;fillColor=#000000;strokeColor=none;" vertex="1" parent="1">
          <mxGeometry x="820" y="30" width="50" height="50" as="geometry" />
        </mxCell>
        <mxCell id="aYaNbTCwkLzp46-Q-Bmp-98" value="" style="endArrow=open;endFill=1;endSize=12;html=1;fontSize=21;exitX=0.5;exitY=1;exitDx=0;exitDy=0;entryX=0.5;entryY=0;entryDx=0;entryDy=0;" edge="1" parent="1" source="aYaNbTCwkLzp46-Q-Bmp-96" target="aYaNbTCwkLzp46-Q-Bmp-188">
          <mxGeometry width="160" relative="1" as="geometry">
            <mxPoint x="972.25" y="82.5" as="sourcePoint" />
            <mxPoint x="500.25" y="214.5" as="targetPoint" />
            <Array as="points">
              <mxPoint x="845" y="153" />
              <mxPoint x="559.25" y="152.5" />
            </Array>
          </mxGeometry>
        </mxCell>
        <mxCell id="aYaNbTCwkLzp46-Q-Bmp-116" value="" style="rhombus;fontSize=21;" vertex="1" parent="1">
          <mxGeometry x="348" y="920" width="50" height="50" as="geometry" />
        </mxCell>
        <mxCell id="aYaNbTCwkLzp46-Q-Bmp-120" value="&lt;font style=&quot;font-size: 18px&quot;&gt;کلیک کردن بر روی ثبت منو&lt;/font&gt;" style="shape=rect;html=1;rounded=1;whiteSpace=wrap;align=center;fontSize=21;fontStyle=1" vertex="1" parent="1">
          <mxGeometry x="286" y="1020" width="175" height="50" as="geometry" />
        </mxCell>
        <mxCell id="aYaNbTCwkLzp46-Q-Bmp-121" value="" style="endArrow=classic;html=1;entryX=0.5;entryY=0;entryDx=0;entryDy=0;exitX=0.5;exitY=1;exitDx=0;exitDy=0;" edge="1" parent="1" target="aYaNbTCwkLzp46-Q-Bmp-120">
          <mxGeometry width="50" height="50" relative="1" as="geometry">
            <mxPoint x="373.5" y="970" as="sourcePoint" />
            <mxPoint x="278.5" y="950" as="targetPoint" />
          </mxGeometry>
        </mxCell>
        <mxCell id="aYaNbTCwkLzp46-Q-Bmp-122" value="" style="endArrow=classic;html=1;entryX=0.5;entryY=0;entryDx=0;entryDy=0;exitX=0.5;exitY=1;exitDx=0;exitDy=0;" edge="1" parent="1" source="aYaNbTCwkLzp46-Q-Bmp-120" target="aYaNbTCwkLzp46-Q-Bmp-179">
          <mxGeometry width="50" height="50" relative="1" as="geometry">
            <mxPoint x="383.5" y="990" as="sourcePoint" />
            <mxPoint x="373.5" y="1132" as="targetPoint" />
          </mxGeometry>
        </mxCell>
        <mxCell id="aYaNbTCwkLzp46-Q-Bmp-150" value="" style="whiteSpace=wrap;html=1;aspect=fixed;fillColor=none;" vertex="1" parent="1">
          <mxGeometry x="90" y="130" width="697" height="697" as="geometry" />
        </mxCell>
        <mxCell id="aYaNbTCwkLzp46-Q-Bmp-179" value="" style="ellipse;html=1;shape=endState;fillColor=#000000;strokeColor=#000000;" vertex="1" parent="1">
          <mxGeometry x="342.75" y="1100" width="60.5" height="60" as="geometry" />
        </mxCell>
        <mxCell id="aYaNbTCwkLzp46-Q-Bmp-180" value="&lt;font size=&quot;1&quot;&gt;&lt;b style=&quot;font-size: 27px&quot;&gt;seller&lt;/b&gt;&lt;/font&gt;" style="text;html=1;align=center;verticalAlign=middle;resizable=0;points=[];autosize=1;" vertex="1" parent="1">
          <mxGeometry x="110" y="130" width="90" height="30" as="geometry" />
        </mxCell>
        <mxCell id="aYaNbTCwkLzp46-Q-Bmp-183" value="" style="whiteSpace=wrap;html=1;aspect=fixed;fillColor=none;" vertex="1" parent="1">
          <mxGeometry x="888" y="130" width="700" height="700" as="geometry" />
        </mxCell>
        <mxCell id="aYaNbTCwkLzp46-Q-Bmp-184" value="&lt;font size=&quot;1&quot;&gt;&lt;b style=&quot;font-size: 27px&quot;&gt;admin&lt;/b&gt;&lt;/font&gt;" style="text;html=1;align=center;verticalAlign=middle;resizable=0;points=[];autosize=1;" vertex="1" parent="1">
          <mxGeometry x="1193" y="160" width="90" height="30" as="geometry" />
        </mxCell>
        <mxCell id="aYaNbTCwkLzp46-Q-Bmp-188" value="&lt;font style=&quot;font-size: 19px&quot;&gt;درخواست فروشنده برای حذف رستوران&lt;/font&gt;" style="shape=rect;html=1;rounded=1;whiteSpace=wrap;align=center;fontSize=21;fontStyle=1" vertex="1" parent="1">
          <mxGeometry x="470" y="232.5" width="177.75" height="60" as="geometry" />
        </mxCell>
        <mxCell id="aYaNbTCwkLzp46-Q-Bmp-191" value="&lt;span style=&quot;font-size: 19px&quot;&gt;تسویه حساب&lt;/span&gt;" style="shape=rect;html=1;rounded=1;whiteSpace=wrap;align=center;fontSize=21;fontStyle=1" vertex="1" parent="1">
          <mxGeometry x="1120" y="360" width="177.75" height="60" as="geometry" />
        </mxCell>
        <mxCell id="aYaNbTCwkLzp46-Q-Bmp-192" value="" style="endArrow=classic;html=1;exitX=0.5;exitY=1;exitDx=0;exitDy=0;entryX=0.5;entryY=0;entryDx=0;entryDy=0;" edge="1" parent="1" source="aYaNbTCwkLzp46-Q-Bmp-188" target="aYaNbTCwkLzp46-Q-Bmp-191">
          <mxGeometry width="50" height="50" relative="1" as="geometry">
            <mxPoint x="727.25" y="322.5" as="sourcePoint" />
            <mxPoint x="1336.125" y="362.5" as="targetPoint" />
            <Array as="points">
              <mxPoint x="557.25" y="322.5" />
              <mxPoint x="1209" y="323" />
            </Array>
          </mxGeometry>
        </mxCell>
        <mxCell id="aYaNbTCwkLzp46-Q-Bmp-193" value="" style="html=1;points=[];perimeter=orthogonalPerimeter;fillColor=#000000;strokeColor=none;fontSize=16;rotation=90;" vertex="1" parent="1">
          <mxGeometry x="1225.98" y="280" width="5" height="370" as="geometry" />
        </mxCell>
        <mxCell id="aYaNbTCwkLzp46-Q-Bmp-194" value="" style="endArrow=open;endFill=1;endSize=12;html=1;fontSize=16;exitX=0.5;exitY=1;exitDx=0;exitDy=0;entryX=0.3;entryY=0.547;entryDx=0;entryDy=0;entryPerimeter=0;" edge="1" parent="1" target="aYaNbTCwkLzp46-Q-Bmp-193">
          <mxGeometry width="160" relative="1" as="geometry">
            <mxPoint x="1212.23" y="420" as="sourcePoint" />
            <mxPoint x="1255.98" y="610" as="targetPoint" />
          </mxGeometry>
        </mxCell>
        <mxCell id="aYaNbTCwkLzp46-Q-Bmp-195" value="" style="endArrow=open;endFill=1;endSize=12;html=1;fontSize=16;exitX=0.3;exitY=0.264;exitDx=0;exitDy=0;exitPerimeter=0;" edge="1" parent="1" source="aYaNbTCwkLzp46-Q-Bmp-193">
          <mxGeometry width="160" relative="1" as="geometry">
            <mxPoint x="1212.23" y="420" as="sourcePoint" />
            <mxPoint x="1315.98" y="510" as="targetPoint" />
            <Array as="points">
              <mxPoint x="1315.98" y="480" />
            </Array>
          </mxGeometry>
        </mxCell>
        <mxCell id="aYaNbTCwkLzp46-Q-Bmp-196" value="" style="endArrow=open;endFill=1;endSize=12;html=1;fontSize=16;exitX=1.3;exitY=0.82;exitDx=0;exitDy=0;exitPerimeter=0;entryX=0.5;entryY=0;entryDx=0;entryDy=0;" edge="1" parent="1" source="aYaNbTCwkLzp46-Q-Bmp-193" target="aYaNbTCwkLzp46-Q-Bmp-198">
          <mxGeometry width="160" relative="1" as="geometry">
            <mxPoint x="1315.8" y="464" as="sourcePoint" />
            <mxPoint x="1110" y="497" as="targetPoint" />
            <Array as="points">
              <mxPoint x="1110" y="500" />
              <mxPoint x="559" y="500" />
            </Array>
          </mxGeometry>
        </mxCell>
        <mxCell id="aYaNbTCwkLzp46-Q-Bmp-197" value="&lt;span style=&quot;font-size: 19px&quot;&gt;فسخ قرارداد&lt;/span&gt;" style="shape=rect;html=1;rounded=1;whiteSpace=wrap;align=center;fontSize=21;fontStyle=1" vertex="1" parent="1">
          <mxGeometry x="1230.98" y="510" width="177.75" height="60" as="geometry" />
        </mxCell>
        <mxCell id="aYaNbTCwkLzp46-Q-Bmp-198" value="&lt;span style=&quot;font-size: 19px&quot;&gt;فسخ قرارداد&lt;/span&gt;" style="shape=rect;html=1;rounded=1;whiteSpace=wrap;align=center;fontSize=21;fontStyle=1" vertex="1" parent="1">
          <mxGeometry x="470" y="525" width="177.75" height="60" as="geometry" />
        </mxCell>
        <mxCell id="aYaNbTCwkLzp46-Q-Bmp-199" value="" style="html=1;points=[];perimeter=orthogonalPerimeter;fillColor=#000000;strokeColor=none;fontSize=16;rotation=90;" vertex="1" parent="1">
          <mxGeometry x="930" y="112.5" width="5" height="1020" as="geometry" />
        </mxCell>
        <mxCell id="aYaNbTCwkLzp46-Q-Bmp-200" value="" style="endArrow=open;endFill=1;endSize=12;html=1;fontSize=16;exitX=0.5;exitY=1;exitDx=0;exitDy=0;entryX=0.917;entryY=0.118;entryDx=0;entryDy=0;entryPerimeter=0;" edge="1" parent="1" target="aYaNbTCwkLzp46-Q-Bmp-199">
          <mxGeometry width="160" relative="1" as="geometry">
            <mxPoint x="1321.14" y="570" as="sourcePoint" />
            <mxPoint x="1364.89" y="760" as="targetPoint" />
          </mxGeometry>
        </mxCell>
        <mxCell id="aYaNbTCwkLzp46-Q-Bmp-201" value="" style="endArrow=open;endFill=1;endSize=12;html=1;fontSize=16;exitX=0.5;exitY=1;exitDx=0;exitDy=0;entryX=1.425;entryY=0.869;entryDx=0;entryDy=0;entryPerimeter=0;" edge="1" parent="1" source="aYaNbTCwkLzp46-Q-Bmp-198" target="aYaNbTCwkLzp46-Q-Bmp-199">
          <mxGeometry width="160" relative="1" as="geometry">
            <mxPoint x="1331.1400000000008" y="580" as="sourcePoint" />
            <mxPoint x="536" y="626" as="targetPoint" />
          </mxGeometry>
        </mxCell>
      </root>
    </mxGraphModel>
  </diagram>
</mxfile>
